<?xml version="1.0" encoding="UTF-8" standalone="no"?>
<svg version="1.1" id="Capa_1" xmlns="http://www.w3.org/2000/svg" xml:space="preserve"
   x="0px" y="0px" viewBox="0 0 512 512">
	<g transform="matrix(1.0494116, 0, 0, 1.0331661, 3.3989069, 25)">
	   <path d="m 480.518, 104.168 c 0.046, -2.164 -0.563, -3.91 -1.584, -5.248 -0.609,
            -1.217 -1.503, -2.354 -2.793, -3.312 C 407.822, 44.931 310.253, 18.132 242.17,
            80.893 174.083, 18.132 76.517, 44.931 8.198, 95.608 6.908, 96.566 6.02, 97.703 5.405,
            98.92 c -1.018, 1.338 -1.632, 3.079 -1.587, 5.248 1.742, 84.573 -0.853, 169.137 -0.982,
            253.716 0, 1.478 0.307, 2.752 0.833, 3.844 -1.435, 6.094 3.006, 13.35 10.359,
            10.481 72.125, -28.112 153.7, -34.333 219.468, 10.983 1.503, 3.56 4.857, 6.134 8.681,
            5.25 3.821, 0.879 7.175, -1.695 8.67, -5.25 65.771, -45.316 147.343, -39.096 219.471,
            -10.983 7.353, 2.868 11.791, -4.388 10.358, -10.481 0.519, -1.092 0.833, -2.366 0.833,
            -3.844 -0.137, -84.579 -2.732, -169.143 -0.991, -253.716 z M 242.17, 367.837 C 176.355,
            322.485 93.833, 325.247 20.547, 351.12 c 0.244, -81.192 2.562, -162.371 0.998,
            -243.563 62.512, -44.978 152.25, -71.561 213.694, -8.891 2.146, 2.188 4.616, 2.849 6.931,
            2.541 2.313, 0.312 4.784, -0.353 6.932, -2.541 61.436, -62.67 151.179, -36.092 213.688,
            8.891 -1.563, 81.192 0.762, 162.371 1.001, 243.568 -73.285, -25.878 -155.812,
            -28.64 -221.621, 16.712 z"
         fill="#ffffff"/>
		<path d="M 474.308, 385.533 C 399.57, 355.446 295, 344.107 240.089, 409.212 185.178,
            344.112 80.605, 355.446 5.867, 385.533 c -13.198, 5.307 -1.803, 23.222 11.273,
            17.961 67.636, -27.229 168.559, -39.354 213.034, 28.762 2.476, 3.793 6.251, 5.144 9.915,
            4.89 3.671, 0.254 7.442, -1.097 9.915, -4.89 44.473, -68.121 145.397, -55.99 213.031,
            -28.762 13.076, 5.266 24.465, -12.654 11.273, -17.961 z"
         fill="#ffffff"/>
		<path d="m 51.071, 183.188 c 1.708, 3.91 6.099, 6.563 10.704, 3.562 11.868, -7.721 24.519,
            -13.348 38.438, -16.115 4.555, -0.904 6.083, -4.596 5.477, -8.117 0.145, -0.617 0.249,
            -1.277 0.249, -2 v -44.199 c 0, -5.189 -4.149, -7.681 -8.168, -7.513 -0.688,
            -0.178 -1.409, -0.297 -2.232, -0.287 -15.991, 0.274 -31.288, 4.476 -44.234,
            14.066 -2.539, 1.876 -3.478, 4.524 -3.333, 7.071 -0.254, 0.693 -0.457, 1.43 -0.531,
            2.263 -1.242, 14.711 -1.3, 29.447 -1.3, 44.198 0, 3.771 2.188, 6.124 4.93,
            7.071 z m 11.865, -49.695 c 8.414, -5.33 17.514, -8.214 27.403,
            -9.082 v 32.494 c -10.009, 2.572 -19.568, 6.599 -28.579, 11.651 0.049, -11.7 0.257,
            -23.389 1.176, -35.063 z"
         fill="#ffffff"/>
		<path d="m 136.612, 126.437 c 19.182, -6.571 37.699, -4.784 55.088, 5.715 8.635,
            5.215 16.468, -8.277 7.871, -13.467 -20.716, -12.507 -44.189, -15.138 -67.108,
            -7.284 -9.457, 3.238 -5.397, 18.309 4.149, 15.036 z"
         fill="#ffffff"/>
		<path d="m 135.312, 160.236 c 19.256, -4.05 37.268, -1.191 53.789, 9.615 8.445, 5.522 16.25,
            -7.988 7.871, -13.467 -20.03, -13.099 -42.597, -16.072 -65.808, -11.185 -9.844,
            2.071 -5.663, 17.107 4.148, 15.037 z"
         fill="#ffffff"/>
		<path d="m 204.771, 205.783 c -52.098, -29.27 -113.287, -17.931 -161.267, 14.299 -8.305,
            5.579 -0.505, 19.098 7.871, 13.467 43.3, -29.082 98.122, -40.933 145.524, -14.299 8.784,
            4.936 16.64, -8.544 7.872, -13.467 z"
         fill="#ffffff"/>
		<path d="m 204.771, 242.182 c -52.098, -29.269 -113.287, -17.93 -161.267, 14.3 -8.304,
            5.58 -0.504, 19.098 7.872, 13.466 43.3, -29.082 98.122, -40.934 145.524, -14.3 8.783,
            4.937 16.639, -8.541 7.871, -13.466 z"
         fill="#ffffff"/>
		<path d="m 204.771, 278.581 c -52.098, -29.27 -113.287, -17.931 -161.267, 14.3 -8.305,
            5.58 -0.505, 19.098 7.871, 13.467 43.3, -29.082 98.122, -40.934 145.524, -14.3 8.784,
            4.935 16.64, -8.541 7.872, -13.467 z"
         fill="#ffffff"/>
		<path d="m 273.093, 225.396 c 45.026, -30.485 100.635, -23.244 146.21, 2.138 8.811,
            4.908 15.457, -9.209 6.724, -14.076 -50.496, -28.127 -112.417, -34.334 -161.901,
            -0.828 -8.334, 5.638 0.624, 18.413 8.967, 12.766 z"
         fill="#ffffff"/>
		<path d="m 276.12, 261.671 c 45.026, -30.488 100.635, -23.244 146.21, 2.139 8.811,
            4.91 15.457, -9.212 6.719, -14.076 -50.501, -28.127 -112.417, -34.335 -161.901,
            -0.828 -8.324, 5.636 0.629, 18.412 8.972, 12.765 z"
         fill="#ffffff"/>
		<path d="m 273.093, 152.599 c 45.026, -30.485 100.635, -23.244 146.21, 2.138 8.811,
            4.908 15.457, -9.208 6.724, -14.076 -50.496, -28.127 -112.417, -34.335 -161.901,
            -0.828 -8.334, 5.637 0.624, 18.413 8.967, 12.766 z"
         fill="#ffffff"/>
		<path d="m 267.152, 176.103 c -8.328, 5.642 0.625, 18.413 8.968, 12.766 45.026,
            -30.488 100.635, -23.244 146.21, 2.136 8.811, 4.91 15.457, -9.209 6.719,
            -14.074 -50.492, -28.123 -112.413, -34.33 -161.897, -0.828 z"
         fill="#ffffff"/>
		<path d="m 432.084, 286 c -50.495, -28.122 -112.421, -34.332 -161.901, -0.823 -8.328,
            5.643 0.63, 18.413 8.968, 12.762 45.026, -30.483 100.641, -23.242 146.21, 2.138 8.81,
            4.914 15.458, -9.207 6.723, -14.077 z"
         fill="#ffffff"/>
	</g>
</svg>
