<svg xmlns="http://www.w3.org/2000/svg" width="512" height="512">
  <g fill="#fff">
    <path d="M508.166 132.45c1.05-2.067-1.05-4.133-2.099-5.167l-3.148-3.1c-71.36-52.69-174.202-80.586-245.562-15.497-71.36-65.089-173.153-37.194-245.563 15.498l-3.148 3.1c-1.05 1.033-2.099 3.099-2.099 5.165 2.099 87.82-1.05 174.605-1.05 262.424 0 2.067 0 3.1 1.05 4.133-1.05 6.2 3.148 13.431 10.494 11.365 75.558-28.929 161.61-35.128 230.87 11.365 2.1 4.132 5.248 6.199 9.446 5.166 4.197 1.033 7.345-2.067 9.444-5.166 69.261-46.493 154.264-40.294 230.87-11.365 7.347 3.1 12.594-4.133 10.495-11.365 1.05-1.033 1.05-2.066 1.05-4.133 0-87.819-3.149-174.605-1.05-262.424zm-250.81 272.755c-69.26-46.492-155.312-44.426-231.92-17.564 0-83.686 3.149-167.373 1.05-252.092 66.113-46.493 159.51-74.388 224.574-9.299 2.099 2.067 5.247 3.1 7.346 3.1s5.247 0 7.346-3.1c64.014-65.09 158.461-37.194 224.574 9.299-2.099 83.686 1.05 167.373 1.05 252.092-76.608-26.862-163.709-29.962-232.97 17.564z"/>
    <path d="M500.82 423.802c-77.656-30.995-187.845-43.393-245.562 23.763C197.54 380.409 88.4 392.807 9.695 423.802c-13.642 5.166-2.098 23.763 11.544 18.597 71.36-27.895 177.35-40.293 223.525 29.962 3.148 4.133 6.296 5.166 10.494 5.166 4.197 0 7.346-1.033 10.494-5.166 47.223-70.255 152.164-57.857 223.524-29.962 13.643 5.166 26.236-13.431 11.544-18.597zM56.919 214.07c2.099 4.132 6.296 7.232 11.543 4.132 12.593-8.265 26.236-13.431 39.878-16.53 5.247-1.034 6.297-5.166 6.297-8.266V145.88c0-5.165-4.198-8.265-8.396-8.265h-2.099c-16.79 0-32.531 5.166-46.174 14.464-3.148 2.067-4.197 5.166-3.148 7.233 0 1.033-1.05 1.033-1.05 2.066-1.049 15.497-1.049 30.995-1.049 45.46 0 4.132 2.1 6.198 5.247 7.231zm12.593-51.659c8.395-5.166 18.89-8.265 28.334-9.298v34.094c-10.494 3.1-20.988 7.232-30.433 12.398 1.05-12.398 0-23.763 1.05-36.16zM147.168 155.179c19.94-7.232 39.878-5.166 57.718 6.199 9.445 5.166 17.84-8.265 8.395-14.464-22.037-13.432-46.174-15.498-70.31-7.233-10.494 3.1-5.247 18.597 4.197 15.498zM145.07 190.307c19.938-4.133 38.828-1.034 56.668 10.331 9.444 6.2 16.79-8.265 8.395-14.464-20.988-13.431-45.125-16.53-69.261-11.365-10.494 2.066-6.297 17.564 4.197 15.498zM218.528 237.832c-54.57-29.962-118.583-18.597-168.955 14.465-8.395 6.199-1.05 19.63 8.395 14.464 45.125-29.962 102.843-42.36 153.214-14.464 9.445 5.165 17.84-9.299 8.396-14.465z"/>
    <path d="M218.528 275.026c-54.57-29.962-118.583-18.597-168.955 14.465-8.395 6.199-1.05 19.63 8.395 14.464 45.125-29.962 102.843-42.36 153.214-14.464 9.445 5.165 17.84-9.299 8.396-14.465z"/>
    <path d="M218.528 313.253c-54.57-29.961-118.583-18.597-168.955 14.465-8.395 6.199-1.05 19.63 8.395 14.464 45.125-29.962 102.843-42.36 153.214-14.464 9.445 5.165 17.84-9.299 8.396-14.465zM289.888 257.462c47.224-32.028 105.99-23.762 153.214 2.067 9.445 5.166 16.791-9.299 7.346-14.465-53.52-28.928-117.534-35.127-170.004-1.033-8.396 6.2 1.049 18.597 9.444 13.431z"/>
    <path d="M293.037 295.69c47.223-32.029 105.99-23.763 153.214 2.066 9.444 5.166 16.79-9.299 7.345-14.464-53.52-28.93-117.534-35.128-170.004-1.034-8.395 6.2 1.05 18.597 9.445 13.432zM289.888 183.074c47.224-32.028 105.99-23.762 153.214 2.067 9.445 5.166 16.791-9.299 7.346-14.465-53.52-28.928-117.534-35.127-170.004-1.033-8.396 6.2 1.049 18.597 9.444 13.431z"/>
    <path d="M283.592 206.837c-8.395 6.2 1.05 18.597 9.445 13.431 47.223-32.028 105.99-23.762 153.214 2.067 9.444 5.166 16.79-9.299 7.345-14.465-53.52-28.928-117.534-35.127-170.004-1.033zM456.745 320.486c-53.52-28.93-117.534-35.128-170.005-1.034-8.395 6.2 1.05 18.597 9.445 13.431 47.223-32.028 105.99-23.762 153.214 2.067 9.445 5.166 16.79-9.299 7.346-14.464z"/>
  </g>
</svg>
