<svg xmlns="http://www.w3.org/2000/svg"
    width="512"
    height="512"
    viewBox="0 0 512 512"
    id="pages-extension-menu-icon">
  <g transform="matrix(1.0494116, 0, 0, 1.0331661, 3.3989069, 25)">
    <path fill="#ffffff"
      d="m481, 104c1-2-1-4-2-5c-1-1-2-2-3-3C408, 45, 310, 18, 242, 81C174, 18, 77, 45, 8, 96C7, 97,
        6, 98, 5, 99c-1, 1-2, 3-2, 5c2, 85-1, 169-1, 254c0, 2, 0, 3, 1, 4c-1, 6, 3, 13, 10,
        11c72-28, 154-34, 220, 11c2, 4, 5, 6, 9, 5c4, 1, 7-2, 9-5c66-45, 147-39, 220-11c7, 3, 12-4,
        10-11c1-1, 1-2, 1-4c0-85-3-169-1-254ZM242, 368C176, 323, 94, 325, 21, 351c0-81, 3-162,
        1-244c63-45, 152-72, 214-9c2, 2, 5, 3, 7, 3c2, 0, 5, 0, 7-3c61-63, 151-36, 214, 9c-2, 81, 1,
        162, 1, 244c-73-26-156-29-222, 17Z"/>
    <path fill="#ffffff"
      d="M474, 386C400, 356, 295, 344, 240, 409C185, 344, 81, 356, 6, 386c-13, 5-2, 23, 11,
        18c68-27, 169-39, 213, 29c3, 4, 6, 5, 10, 5c4, 0, 7-1, 10-5c45-68, 145-56, 213-29c13, 5,
        25-13, 11-18Z"/>
    <path fill="#ffffff"
      d="m51, 183c2, 4, 6, 7, 11, 4c12-8, 25-13, 38-16c5-1, 6-5, 6-8c0-1, 0-1,
        0-2v-44c0-5-4-8-8-8c-1, 0-1, 0-2, 0c-16, 0-31, 5-44, 14c-3, 2-4, 5-3, 7c0, 1-1, 1-1, 2c-1,
        15-1, 30-1, 44c0, 4, 2, 6, 5, 7Zm12-50c8-5, 18-8, 27-9v33c-10, 3-20, 7-29, 12c1-12, 0-23,
        1-35Z"/>
    <path fill="#ffffff"
      d="m137, 126c19-7, 38-5, 55, 6c9, 5, 17-8, 8-14c-21-13-44-15-67-7c-10, 3-5, 18, 4, 15Z"/>
    <path fill="#ffffff"
      d="m135, 160c19-4, 37-1, 54, 10c9, 6, 16-8, 8-14c-20-13-43-16-66-11c-10, 2-6, 17, 4, 15Z"/>
    <path fill="#ffffff"
      d="m205, 206c-52-29-113-18-161, 14c-8, 6-1, 19, 8, 14c43-29, 98-41, 146-14c9, 5, 17-9, 8-14Z"/>
    <path fill="#ffffff"
      d="m205, 242c-52-29-113-18-161, 14c-8, 6-1, 19, 8, 14c43-29, 98-41, 146-14c9, 5, 17-9, 8-14Z"/>
    <path fill="#ffffff"
      d="m205, 279c-52-29-113-18-161, 14c-8, 6-1, 19, 8, 14c43-29, 98-41, 146-14c9, 5, 17-9, 8-14Z"/>
    <path fill="#ffffff"
      d="m273, 225c45-31, 101-23, 146, 2c9, 5, 16-9, 7-14c-51-28-112-34-162-1c-8, 6, 1, 18, 9, 13Z"/>
    <path fill="#ffffff"
      d="m276, 262c45-31, 101-23, 146, 2c9, 5, 16-9, 7-14c-51-28-112-34-162-1c-8, 6, 1, 18, 9, 13Z"/>
    <path fill="#ffffff"
      d="m273, 153c45-31, 101-23, 146, 2c9, 5, 16-9, 7-14c-51-28-112-34-162-1c-8, 6, 1, 18, 9, 13Z"/>
    <path fill="#ffffff"
      d="m267, 176c-8, 6, 1, 18, 9, 13c45-31, 101-23, 146, 2c9, 5, 16-9, 7-14c-51-28-112-34-162-1Z"/>
    <path fill="#ffffff"
      d="m432, 286c-51-28-112-34-162-1c-8, 6, 1, 18, 9, 13c45-31, 101-23, 146, 2c9, 5, 16-9, 7-14Z"/>
  </g>
</svg>
